<?xml version="1.0" encoding="UTF-8"?>
<svg id="_レイヤー_1" data-name="レイヤー 1" xmlns="http://www.w3.org/2000/svg" viewBox="0 0 9.5625 9.5617788">
  <path d="M4.7808894,0c1.3208186,0,2.5158422.5353558,3.3810152,1.4005621.8652433.8651915,1.4005954,2.0602336,1.4005954,3.3803643,0,1.3200753-.5353521,2.51582-1.4005954,3.3810485-.865173.8651878-2.0601966,1.3998039-3.3810152,1.3998039-1.3200938,0-2.5151358-.5346161-3.3803236-1.3998039-.86521-.8652285-1.4005658-2.0609732-1.4005658-3.3810485,0-1.3201307.5353558-2.5151728,1.4005658-3.3803643.8651878-.8652063,2.0602299-1.4005621,3.3803236-1.4005621h0ZM6.0095752.5412065c.248698.2354802.4731609.5412065.6662767.9032215.1374596.2589165.2596044.5470573.3634758.8593371h1.394641c-.1564579-.2310903-.3349099-.4468325-.5323934-.6435616-.5192458-.5193013-1.1672491-.9098119-1.8920001-1.118997h0ZM7.1490165,2.6716677c.1565282.5843624.2501071,1.2367186.264734,1.9256402h1.7771484c-.0284956-.6954935-.2178909-1.3493291-.5323564-1.9256402h-1.509526ZM7.4137505,4.9651736c-.0146269.6889586-.1082058,1.3406269-.264734,1.924956h1.509526c.3144655-.5762741.5038608-1.2301466.5323564-1.924956h-1.7771484ZM7.0393277,7.2580138c-.1038714.3122798-.2260162.6004353-.3634758.8600767-.1931158.3612938-.4175787.6669831-.6662767.9032215.7247511-.2099284,1.3727543-.6004538,1.8920001-1.1197218.1974835-.1967069.3759355-.4124676.5323934-.6435764h-1.394641ZM3.5529655,9.021312c-.248698-.2362384-.4731979-.5419277-.6663137-.9032215-.1374966-.2596414-.2596229-.547797-.3634758-.8600767h-1.3946965c.1565319.2311088.3349653.4468695.5317092.6435764.5199855.519268,1.1679518.9097934,1.8927768,1.1197218h0ZM2.4134872,6.8901296c-.1565282-.5843291-.2501404-1.2359974-.2647525-1.924956H.371516c.0285474.6948094.2179427,1.3486819.5324637,1.924956h1.5095075ZM2.1487347,4.5973079c.0146121-.6889216.1082243-1.3412778.2647525-1.9256402H.9039796c-.314521.5763111-.5039162,1.2301466-.5324637,1.9256402h1.7772187ZM2.523176,2.303765c.1038529-.3122798.2259792-.6004205.3634758-.8593371.1931158-.3620149.4176157-.6677413.6663137-.9032215-.724825.2091851-1.3727913.5996956-1.8927768,1.118997-.1967439.1967291-.3751773.4124713-.5317092.6435616h1.3946965ZM6.3525733,1.6163228c-.3693265-.6926051-.8549139-1.1475296-1.3873812-1.2338117v1.921254h1.6864616c-.0870033-.2479214-.1879492-.4782905-.2990804-.6874423h0ZM4.5973116.3825111c-.5324489.0862821-1.0180547.5412065-1.3874182,1.2338117-.1111497.2091518-.2120587.4395209-.2990989.6874423h1.6865171V.3825111ZM2.7937941,2.6716677c-.1638398.5770323-.2625668,1.2301466-.2771937,1.9256402h2.0807112v-1.9256402h-1.8035175ZM2.5166004,4.9651736c.0146269.6948094.1133539,1.3486819.2771937,1.924956h1.8035175v-1.924956h-2.0807112ZM2.9107945,7.2580138c.0870402.2479399.1879492.478309.2990989.6874793.3693635.6925682.8549693,1.1482323,1.3874182,1.2337747v-1.921254h-1.6865171ZM4.9651921,9.1792677c.5324674-.0855424,1.0180547-.5412065,1.3873812-1.2337747.1111312-.2091703.2120772-.4395394.2990804-.6874793h-1.6864616v1.921254ZM6.7686727,6.8901296c.1638583-.5762741.2626371-1.2301466.277264-1.924956h-2.0807445v1.924956h1.8034806ZM7.0459366,4.5973079c-.0146269-.6954935-.1134057-1.3486079-.277264-1.9256402h-1.8034806v1.9256402h2.0807445Z"/>
</svg>