<svg xmlns="http://www.w3.org/2000/svg" viewBox="0 0 100 100"><g id="Layer_3" data-name="Layer 3"><path d="M13.884,96.5c53.205,0,49.91.07,50.36-.131.435-.193.22-.031,5.214-5.857H80.285a1.5,1.5,0,0,0,1.5-1.5V84.681h4.331a1.5,1.5,0,0,0,1.5-1.5V5a1.5,1.5,0,0,0-1.5-1.5H25.7A1.5,1.5,0,0,0,24.2,5V9.331H19.872a1.5,1.5,0,0,0-1.5,1.5v4.488H13.884a1.5,1.5,0,0,0-1.5,1.5V95A1.5,1.5,0,0,0,13.884,96.5Zm51.252-5.554V84.062h5.9ZM27.2,6.5H84.616V81.681H81.785V10.831a1.5,1.5,0,0,0-1.5-1.5H27.2Zm-5.831,5.831H78.785V87.512H72.029l3.406-3.974c.539-.622.362,3.435.362-66.719a1.5,1.5,0,0,0-1.5-1.5H21.372Zm-5.988,5.988H72.8V81.062H63.636a1.5,1.5,0,0,0-1.5,1.5V93.5H15.384Zm10.86,50.758H61.938a1.5,1.5,0,0,1,0,3H26.244A1.5,1.5,0,0,1,26.244,69.077ZM44.907,82.738H26.244a1.5,1.5,0,0,1,0-3H44.907A1.5,1.5,0,0,1,44.907,82.738ZM26.244,29.081H61.938a1.5,1.5,0,0,1,0,3H26.244A1.5,1.5,0,0,1,26.244,29.081Zm0,13.332H61.938a1.5,1.5,0,0,1,0,3H26.244A1.5,1.5,0,0,1,26.244,42.413Zm0,13.332H61.938a1.5,1.5,0,0,1,0,3H26.244A1.5,1.5,0,0,1,26.244,55.745Z"/></g></svg>